<svg xmlns="http://www.w3.org/2000/svg" viewBox="0 0 480 320" fill="none">
  <!-- ═══ MOUNTAINS BACKGROUND ═══ -->
  <path d="M100 160L160 90L220 140L280 70L340 130L380 160z" fill="#ffffff" opacity="0.12"/>
  <path d="M80 160L140 100L190 140L240 85L300 135L360 95L400 160z" fill="#ffffff" opacity="0.08"/>
  <path d="M160 90L150 105L170 105z" fill="#ffffff" opacity="0.15"/>
  <path d="M280 70L268 88L292 88z" fill="#ffffff" opacity="0.15"/>

  <!-- ═══ MAIN HOUSE / DOUBLE ROOF ═══ -->
  <path d="M240 65L140 160h200z" fill="#ffffff" opacity="0.15" stroke="#ffffff" stroke-width="1" stroke-opacity="0.2"/>
  <path d="M220 80L120 175h200z" fill="#ffffff" opacity="0.25" stroke="#ffffff" stroke-width="1.5" stroke-opacity="0.3"/>
  <path d="M220 80L175 122h90z" fill="#ffffff" opacity="0.1"/>
  <path d="M120 175L220 80L320 175" fill="none" stroke="#D4942A" stroke-width="3" stroke-linecap="round"/>

  <rect x="150" y="175" width="140" height="50" fill="#ffffff" opacity="0.08" stroke="#ffffff" stroke-width="0.5" stroke-opacity="0.15"/>
  <rect x="170" y="185" width="22" height="22" rx="2" fill="#ffffff" opacity="0.06" stroke="#ffffff" stroke-width="0.5" stroke-opacity="0.15"/>
  <rect x="248" y="185" width="22" height="22" rx="2" fill="#ffffff" opacity="0.06" stroke="#ffffff" stroke-width="0.5" stroke-opacity="0.15"/>
  <rect x="207" y="195" width="26" height="30" rx="3" fill="#ffffff" opacity="0.05"/>
  <rect x="260" y="100" width="16" height="35" rx="2" fill="#ffffff" opacity="0.12"/>

  <!-- ═══ CROSSED TOOLS ═══ -->
  <g transform="translate(250, 40) rotate(-35)">
    <rect x="-4" y="0" width="8" height="75" rx="3" fill="#D4942A" opacity="0.7"/>
    <path d="M-18 -8h36c3 0 5 2 5 5v10c0 3-2 5-5 5h-36c-3 0-5-2-5-5v-10c0-3 2-5 5-5z" fill="#ffffff" opacity="0.3"/>
  </g>
  <g transform="translate(300, 55) rotate(35)">
    <rect x="-3.5" y="0" width="7" height="70" rx="2" fill="#D4942A" opacity="0.6"/>
  </g>

  <!-- ═══ TEXT ═══ -->
  <text x="240" y="262" text-anchor="middle" font-family="Montserrat, Arial, Helvetica, sans-serif" font-weight="900" font-size="38" fill="#ffffff" letter-spacing="2">
    COUVERTURE
  </text>

  <rect x="185" y="272" width="110" height="32" rx="4" fill="#D4942A"/>
  <text x="240" y="296" text-anchor="middle" font-family="Montserrat, Arial, Helvetica, sans-serif" font-weight="900" font-size="26" fill="#ffffff" letter-spacing="6">
    L.L
  </text>

  <text x="240" y="318" text-anchor="middle" font-family="Montserrat, Arial, Helvetica, sans-serif" font-weight="600" font-size="13" fill="#9CA3AF" letter-spacing="4">
    CHARPENTE &amp; TOITURE
  </text>

  <line x1="60" y1="255" x2="130" y2="255" stroke="#D4942A" stroke-width="2.5" stroke-linecap="round"/>
  <line x1="350" y1="255" x2="420" y2="255" stroke="#D4942A" stroke-width="2.5" stroke-linecap="round"/>
</svg>
